<!--?xml version="1.0" encoding="utf-8"?-->
<!-- Generator: Adobe Illustrator 18.1.1, SVG Export Plug-In . SVG Version: 6.00 Build 0)  -->

<svg version="1.1" id="_x32_" xmlns="http://www.w3.org/2000/svg" xmlns:xlink="http://www.w3.org/1999/xlink" x="0px" y="0px" viewBox="0 0 512 512" style="width: 256px; height: 256px; opacity: 1;" xml:space="preserve">
<style type="text/css">
	.st0{fill:#4B4B4B;}
</style>
<g>
	<path class="st0" d="M504.844,115.298c-4.342-1.927-9.427-1.122-12.964,2.072l-41.644,37.645v-90.47
		c0-4.723-2.75-9.002-7.048-10.956c-4.288-1.963-9.327-1.24-12.892,1.864l-34.768,30.189L360.76,55.453
		c-4.533-3.936-11.273-3.936-15.796,0l-34.741,30.189l-34.695-30.181c-4.533-3.944-11.282-3.944-15.815,0l-34.696,30.181
		l-34.695-30.181c-4.532-3.944-11.282-3.944-15.814,0l-34.704,30.181l-34.695-30.181c-4.533-3.944-11.291-3.944-15.815,0
		L54.608,85.633l-34.66-30.172c-3.565-3.103-8.604-3.836-12.901-1.882C2.75,55.542,0,59.821,0,64.544v330.399
		c0.008,35.663,28.896,64.55,64.559,64.559h369.745c42.919-0.009,77.687-34.777,77.696-77.696V126.309
		C512,121.55,509.195,117.235,504.844,115.298z M487.917,381.807c-0.009,14.838-5.98,28.172-15.706,37.907
		c-9.734,9.716-23.06,15.696-37.906,15.706H64.559c-11.218-0.009-21.26-4.514-28.615-11.861
		c-7.346-7.355-11.852-17.397-11.861-28.615V90.998l22.618,19.686c4.524,3.936,11.29,3.936,15.814,0l34.687-30.181l34.695,30.181
		c4.524,3.936,11.281,3.936,15.814,0l34.705-30.181l34.695,30.181c4.524,3.936,11.291,3.936,15.814,0l34.696-30.181l34.696,30.181
		c4.524,3.936,11.282,3.945,15.804,0.008l34.741-30.198l34.768,30.198c4.532,3.936,11.264,3.936,15.796,0l22.727-19.74v300.923
		h24.083V187.494l37.681-34.063V381.807z" style="fill: rgb(75, 75, 75);"></path>
	<rect x="71.363" y="170.431" class="st0" width="126.849" height="104.918" style="fill: rgb(75, 75, 75);"></rect>
	<rect x="243.366" y="170.431" class="st0" width="126.849" height="15.054" style="fill: rgb(75, 75, 75);"></rect>
	<rect x="243.366" y="215.368" class="st0" width="126.849" height="15.054" style="fill: rgb(75, 75, 75);"></rect>
	<rect x="243.366" y="260.305" class="st0" width="126.849" height="15.045" style="fill: rgb(75, 75, 75);"></rect>
	<rect x="71.363" y="305.233" class="st0" width="298.852" height="15.054" style="fill: rgb(75, 75, 75);"></rect>
	<rect x="71.363" y="350.178" class="st0" width="298.852" height="15.046" style="fill: rgb(75, 75, 75);"></rect>
</g>
</svg>
